<svg width="72" height="72" viewBox="0 0 72 72" fill="none" xmlns="http://www.w3.org/2000/svg">
<g filter="url(#filter0_d_1_92)">
<path d="M68 12C68 18.275 60.6125 27.6375 57.425 31.375C56.95 31.925 56.25 32.1375 55.6125 32H44C41.7875 32 40 33.7875 40 36C40 38.2125 41.7875 40 44 40H56C62.625 40 68 45.375 68 52C68 58.625 62.625 64 56 64H21.45C22.5375 62.7625 23.8625 61.175 25.2 59.4C25.9875 58.35 26.8 57.2 27.575 56H56C58.2125 56 60 54.2125 60 52C60 49.7875 58.2125 48 56 48H44C37.375 48 32 42.625 32 36C32 29.375 37.375 24 44 24H48.975C46.35 20.0625 44 15.5375 44 12C44 5.375 49.375 0 56 0C62.625 0 68 5.375 68 12ZM18.6375 61.1375C18.1625 61.675 17.7375 62.15 17.375 62.55L17.15 62.8L17.125 62.775C16.375 63.35 15.3 63.275 14.625 62.55C11.475 59.125 4 50.3125 4 44C4 37.375 9.375 32 16 32C22.625 32 28 37.375 28 44C28 47.75 25.3625 52.375 22.5625 56.2375C21.225 58.075 19.85 59.7375 18.7125 61.05L18.6375 61.1375ZM20 44C20 42.9391 19.5786 41.9217 18.8284 41.1716C18.0783 40.4214 17.0609 40 16 40C14.9391 40 13.9217 40.4214 13.1716 41.1716C12.4214 41.9217 12 42.9391 12 44C12 45.0609 12.4214 46.0783 13.1716 46.8284C13.9217 47.5786 14.9391 48 16 48C17.0609 48 18.0783 47.5786 18.8284 46.8284C19.5786 46.0783 20 45.0609 20 44ZM56 16C57.0609 16 58.0783 15.5786 58.8284 14.8284C59.5786 14.0783 60 13.0609 60 12C60 10.9391 59.5786 9.92172 58.8284 9.17157C58.0783 8.42143 57.0609 8 56 8C54.9391 8 53.9217 8.42143 53.1716 9.17157C52.4214 9.92172 52 10.9391 52 12C52 13.0609 52.4214 14.0783 53.1716 14.8284C53.9217 15.5786 54.9391 16 56 16Z" fill="#7A9D8C"/>
</g>
<defs>
<filter id="filter0_d_1_92" x="0" y="0" width="72" height="72" filterUnits="userSpaceOnUse" color-interpolation-filters="sRGB">
<feFlood flood-opacity="0" result="BackgroundImageFix"/>
<feColorMatrix in="SourceAlpha" type="matrix" values="0 0 0 0 0 0 0 0 0 0 0 0 0 0 0 0 0 0 127 0" result="hardAlpha"/>
<feOffset dy="4"/>
<feGaussianBlur stdDeviation="2"/>
<feComposite in2="hardAlpha" operator="out"/>
<feColorMatrix type="matrix" values="0 0 0 0 0 0 0 0 0 0 0 0 0 0 0 0 0 0 0.25 0"/>
<feBlend mode="normal" in2="BackgroundImageFix" result="effect1_dropShadow_1_92"/>
<feBlend mode="normal" in="SourceGraphic" in2="effect1_dropShadow_1_92" result="shape"/>
</filter>
</defs>
</svg>
